<svg height="512pt" viewBox="0 0 512 512.001" width="512pt" xmlns="http://www.w3.org/2000/svg"><path d="m480.367188 360.257812-145.359376-158.574218c-1.304687-16.996094-7.980468-32.507813-18.34375-44.832032 19.957032-5.472656 34.671876-23.761718 34.671876-45.433593v-.03125c0-25.980469-21.136719-47.117188-47.117188-47.117188h-2.148438c23.859376-31.824219 54.957032-34.269531 66.398438-34.269531 8.28125 0 15-6.714844 15-15s-6.71875-15-15-15c-64.300781 0-93.046875 49.796875-103.898438 64.265625h-17.136718c-10.855469-14.46875-39.597656-64.265625-103.898438-64.265625-8.285156 0-15 6.714844-15 15s6.714844 15 15 15c11.4375 0 42.539063 2.445312 66.398438 34.265625h-2.148438c-25.980468 0-47.117187 21.136719-47.117187 47.117187v.03125c0 21.675782 14.710937 39.964844 34.671875 45.4375-10.367188 12.324219-17.039063 27.832032-18.34375 44.828126l-145.363282 158.578124c-20.398437 22.253907-31.632812 51.132813-31.632812 81.320313 0 38.957031 31.523438 70.421875 70.414062 70.421875 49.859376 0 63.945313-41.59375 65.882813-48.566406l25.273437-91c3.234376 28.703125 15.082032 55.914062 34.164063 77.929687l48.929687 56.460938c2.847657 3.285156 6.984376 5.175781 11.335938 5.175781s8.488281-1.890625 11.335938-5.175781l48.929687-56.460938c19.082031-22.015625 30.929687-49.222656 34.164063-77.929687l25.277343 91c1.933594 6.972656 16.019531 48.566406 65.878907 48.566406 38.890624 0 70.414062-31.464844 70.414062-70.421875 0-30.1875-11.234375-59.066406-31.632812-81.320313zm-372.976563 95.144532c-8.21875 29.582031-45.929687 34.378906-65.558594 14.757812-22.324219-22.335937-10.324219-65.371094 11.917969-89.632812l106.796875-116.507813zm83.277344-343.988282v-.03125c0-9.4375 7.679687-17.117187 17.117187-17.117187h96.433594c9.4375 0 17.117188 7.679687 17.117188 17.117187v.03125c0 9.441407-7.679688 17.117188-17.117188 17.117188h-96.433594c-9.441406 0-17.117187-7.675781-17.117187-17.117188zm65.332031 145.652344c-27.164062 0-49.265625-22.101562-49.265625-49.265625 0-27.167969 22.101563-49.269531 49.265625-49.269531 27.167969 0 49.265625 22.101562 49.265625 49.269531 0 27.164063-22.097656 49.265625-49.265625 49.265625zm57.460938 64.265625h-114.921876c11.070313-20.390625 32.675782-34.265625 57.460938-34.265625 24.789062 0 46.394531 13.875 57.460938 34.265625zm-128.773438-32.125c3.257812-11.726562 6.304688-22.691406 9.023438-32.476562 4.007812 5.09375 8.621093 9.679687 13.738281 13.660156-8.535157 5.070313-16.210938 11.429687-22.761719 18.816406zm108.910156 141.507813-37.597656 43.382812-37.59375-43.378906c-4.121094-4.753906-7.804688-9.8125-11.050781-15.117188h97.289062c-3.242187 5.300782-6.929687 10.363282-11.046875 15.113282zm23.898438-45.113282h-122.992188c-3.558594-13.355468-3.976562-23.859374-3.808594-34.269531h130.609376c.167968 10.410157-.25 20.914063-3.808594 34.269531zm-12.941406-115.210937c5.113281-3.980469 9.730468-8.566406 13.738281-13.660156 2.714843 9.785156 5.761719 20.75 9.019531 32.476562-6.550781-7.386719-14.226562-13.746093-22.757812-18.816406zm165.613281 199.769531c-19.628907 19.621094-57.339844 14.824219-65.558594-14.757812l-53.15625-191.382813 106.796875 116.507813c22.242188 24.261718 34.242188 67.296875 11.917969 89.632812zm0 0"/></svg>